<?xml version="1.0" standalone="no"?>
<!DOCTYPE svg PUBLIC "-//W3C//DTD SVG 20010904//EN"
 "http://www.w3.org/TR/2001/REC-SVG-20010904/DTD/svg10.dtd">
<svg version="1.0" xmlns="http://www.w3.org/2000/svg"
 width="741.000000pt" height="158.000000pt" viewBox="0 0 741.000000 158.000000"
 preserveAspectRatio="xMidYMid meet">

<g transform="translate(0.000000,158.000000) scale(0.100000,-0.100000)"
fill="#000000" stroke="none">
<path d="M1217 1403 c18 -2 50 -2 70 0 21 2 7 4 -32 4 -38 0 -55 -2 -38 -4z"/>
<path d="M1090 1389 c-53 -15 -121 -41 -117 -46 3 -2 17 2 33 8 16 6 58 20 94
29 36 10 56 18 45 18 -11 0 -36 -4 -55 -9z"/>
<path d="M1205 1354 c-58 -9 -190 -47 -240 -69 -129 -56 -249 -156 -294 -243
-30 -58 -26 -64 7 -11 60 94 201 186 372 243 184 61 377 71 506 27 75 -26 46
-1 -35 30 -43 17 -82 23 -171 25 -63 1 -128 0 -145 -2z"/>
<path d="M1205 1221 c-118 -26 -179 -48 -287 -104 -120 -61 -213 -138 -255
-208 -35 -59 -57 -133 -51 -170 3 -20 6 -17 16 18 35 119 204 263 405 343 280
112 610 102 739 -23 36 -35 40 -37 24 -12 -62 98 -128 143 -245 165 -81 15
-255 11 -346 -9z"/>
<path d="M6570 785 l0 -355 70 0 70 0 0 355 0 355 -70 0 -70 0 0 -355z"/>
<path d="M3940 1030 l0 -70 -30 0 -30 0 0 -65 0 -65 30 0 30 0 0 -155 c0 -169
9 -209 52 -237 31 -21 107 -32 153 -24 35 7 35 7 35 61 l0 55 -34 0 c-57 0
-66 23 -66 172 l0 128 50 0 50 0 0 65 0 65 -50 0 -50 0 0 70 0 70 -70 0 -70 0
0 -70z"/>
<path d="M1299 1040 c-104 -18 -210 -54 -319 -108 -95 -47 -128 -70 -192 -132
-88 -87 -119 -146 -119 -227 0 -30 7 -66 18 -87 l18 -36 1 58 c2 78 23 122 96
198 147 154 375 249 625 261 218 11 347 -33 414 -142 l19 -30 0 27 c0 40 -18
79 -53 116 -78 81 -174 112 -341 111 -67 -1 -142 -5 -167 -9z"/>
<path d="M2408 950 c-163 -41 -254 -227 -184 -375 123 -261 536 -176 536 110
0 108 -62 201 -163 245 -56 25 -136 33 -189 20z m145 -137 c65 -33 89 -141 46
-209 -51 -83 -163 -92 -227 -20 -41 47 -49 102 -24 158 40 91 116 117 205 71z"/>
<path d="M3747 946 c-26 -7 -61 -26 -77 -41 l-30 -29 0 37 0 37 -70 0 -70 0 0
-260 0 -260 70 0 70 0 0 136 c0 105 4 144 16 170 20 41 87 84 132 84 l32 0 0
70 c0 78 2 76 -73 56z"/>
<path d="M4575 953 c-53 -12 -88 -27 -115 -50 l-30 -25 0 36 0 36 -65 0 -65 0
0 -260 0 -260 64 0 64 0 4 144 c3 127 6 148 24 172 31 43 67 65 112 71 l42 6
0 68 c0 38 -3 68 -7 68 -5 -1 -17 -3 -28 -6z"/>
<path d="M4848 947 c-64 -19 -113 -59 -146 -120 -23 -45 -27 -63 -27 -142 0
-73 4 -98 22 -130 47 -90 125 -136 228 -136 68 0 109 12 143 43 l22 21 0 -26
c0 -27 1 -27 70 -27 l70 0 0 260 0 260 -70 0 c-67 0 -70 -1 -70 -24 l0 -25
-43 24 c-53 30 -137 39 -199 22z m162 -123 c54 -22 85 -72 84 -140 -2 -93 -52
-144 -144 -144 -88 0 -142 57 -142 151 0 62 26 107 77 130 49 23 73 23 125 3z"/>
<path d="M6131 948 c-74 -11 -140 -47 -178 -97 -85 -110 -65 -295 40 -375 78
-60 221 -77 308 -39 43 19 119 78 119 92 0 4 -24 20 -54 36 l-55 30 -23 -22
c-58 -53 -175 -49 -223 9 -14 16 -25 34 -25 39 0 5 86 9 205 9 l205 0 0 63 c0
170 -139 281 -319 255z m134 -149 c19 -17 35 -40 35 -50 0 -18 -9 -19 -130
-19 -134 0 -140 2 -119 41 18 35 70 59 126 59 44 0 58 -5 88 -31z"/>
<path d="M2873 935 c-3 -9 -3 -98 -1 -198 5 -192 11 -219 61 -275 45 -49 171
-58 243 -18 42 23 44 24 44 5 0 -17 8 -19 70 -19 l70 0 0 260 0 260 -69 0 -70
0 -3 -179 c-3 -173 -4 -180 -27 -205 -30 -32 -71 -41 -117 -26 -56 19 -64 50
-64 245 l0 165 -65 0 c-50 0 -67 -4 -72 -15z"/>
<path d="M5310 945 c0 -6 238 -470 260 -508 l17 -27 136 264 c76 146 137 267
137 270 0 3 -34 6 -75 6 l-75 0 -62 -132 -63 -132 -62 132 -63 132 -75 0 c-41
0 -75 -2 -75 -5z"/>
<path d="M1415 832 c-203 -20 -420 -116 -532 -235 -68 -72 -87 -110 -87 -177
-1 -64 20 -100 87 -151 42 -33 42 -33 15 -3 -72 79 -55 174 50 279 162 162
510 250 713 180 95 -33 162 -121 144 -188 -5 -18 -4 -19 4 -6 6 9 15 37 21 64
10 44 8 53 -15 101 -23 48 -33 57 -95 88 -41 20 -91 37 -122 40 -84 8 -151 12
-183 8z"/>
<path d="M1320 589 c-93 -23 -201 -76 -257 -124 -23 -19 -54 -60 -69 -91 -24
-50 -26 -59 -15 -94 14 -49 57 -85 123 -105 69 -20 82 -19 33 4 -58 27 -80 55
-80 106 0 82 103 172 249 220 71 23 97 27 172 24 104 -5 158 -27 188 -78 16
-28 17 -38 7 -71 -6 -22 -24 -54 -38 -72 -26 -31 -26 -32 -3 -13 62 51 100
116 100 171 0 51 -56 106 -130 128 -71 21 -188 19 -280 -5z"/>
<path d="M1375 404 c-121 -30 -206 -112 -175 -169 19 -36 61 -48 140 -43 80 6
170 46 201 89 28 40 25 85 -7 106 -26 17 -119 27 -159 17z m99 -80 c21 -20 20
-26 -5 -57 -36 -47 -158 -64 -183 -25 -14 23 8 61 47 81 42 21 121 22 141 1z"/>
</g>
</svg>
